<svg id="Layer_3" enable-background="new 0 0 64 64" height="512" viewBox="0 0 64 64" width="512" xmlns="http://www.w3.org/2000/svg"><g><path d="m48 19h-6c-2.623 0-4.781 2.03-4.984 4.602l-1.016-1.016v-17.586c0-2.206-1.794-4-4-4s-4 1.794-4 4v17.586l-1.016 1.016c-.203-2.572-2.361-4.602-4.984-4.602h-6c-8.271 0-15 6.729-15 15v24c0 2.757 2.243 5 5 5h6c8.271 0 15-6.729 15-15v-12.343c0-.79.32-1.562.878-2.121l3.415-3.415c.39-.39 1.024-.39 1.414 0l3.415 3.415c.558.558.878 1.331.878 2.121v12.343c0 8.271 6.729 15 15 15h6c2.757 0 5-2.243 5-5v-24c0-8.271-6.729-15-15-15zm-14-6h-4v-2h4zm0-4h-4v-2h4zm-2-6c1.103 0 2 .897 2 2h-4c0-1.103.897-2 2-2zm29 55c0 1.654-1.346 3-3 3h-6c-7.168 0-13-5.832-13-13v-12.343c0-1.335-.52-2.591-1.464-3.535l-3.415-3.415c-.585-.585-1.353-.877-2.121-.877s-1.536.292-2.121.877l-3.415 3.415c-.944.944-1.464 2.199-1.464 3.535v12.343c0 7.168-5.832 13-13 13h-6c-1.654 0-3-1.346-3-3v-24c0-7.168 5.832-13 13-13v5.649l-1.08 1.351h-2.92v-3h-2v3h-1c-.197 0-.391.059-.555.168l-3 2 1.109 1.664 2.749-1.832h4.017l-1.1 1.375 1.562 1.249 4-5c.141-.177.218-.397.218-.624v-1h1.465l1.703 2.555 1.664-1.109-2-3c-.186-.279-.498-.446-.832-.446h-2v-3h4c1.654 0 3 1.346 3 3v2c0 .404.244.769.617.924.373.154.804.069 1.09-.217l3-3c.188-.187.293-.442.293-.707v-8h4v8c0 .265.105.52.293.707l3 3c.286.286.714.371 1.09.217.373-.155.617-.52.617-.924v-2c0-1.654 1.346-3 3-3h4v3h-2c-.334 0-.646.167-.832.445l-2 3 1.664 1.109 1.703-2.554h1.465v1c0 .227.077.447.219.625l4 5 1.562-1.249-1.101-1.376h4.017l2.748 1.832 1.109-1.664-3-2c-.163-.109-.357-.168-.554-.168h-1v-3h-2v3h-2.92l-1.08-1.351v-5.649c7.168 0 13 5.832 13 13z"/><path d="m8 53c-1.654 0-3 1.346-3 3s1.346 3 3 3 3-1.346 3-3-1.346-3-3-3zm0 4c-.551 0-1-.449-1-1s.449-1 1-1 1 .449 1 1-.449 1-1 1z"/><path d="m19 50c0-1.654-1.346-3-3-3s-3 1.346-3 3 1.346 3 3 3 3-1.346 3-3zm-3 1c-.551 0-1-.449-1-1s.449-1 1-1 1 .449 1 1-.449 1-1 1z"/><path d="m6 49h2v2h-2z"/><path d="m10 46h2v2h-2z"/><path d="m14 43h2v2h-2z"/><path d="m13 55h2v2h-2z"/><path d="m18 54h2v2h-2z"/><path d="m21 45h2v2h-2z"/><path d="m21 49h2v2h-2z"/><path d="m6 43h2v2h-2z"/><path d="m10 39h2v2h-2z"/><path d="m6 37h2v2h-2z"/><path d="m14 37h2v2h-2z"/><path d="m18 41h2v2h-2z"/><path d="m20 37h2v2h-2z"/><path d="m10 33h2v2h-2z"/><path d="m17 33h2v2h-2z"/><path d="m56 53c-1.654 0-3 1.346-3 3s1.346 3 3 3 3-1.346 3-3-1.346-3-3-3zm0 4c-.551 0-1-.449-1-1s.449-1 1-1 1 .449 1 1-.449 1-1 1z"/><path d="m48 47c-1.654 0-3 1.346-3 3s1.346 3 3 3 3-1.346 3-3-1.346-3-3-3zm0 4c-.551 0-1-.449-1-1s.449-1 1-1 1 .449 1 1-.449 1-1 1z"/><path d="m56 49h2v2h-2z"/><path d="m52 46h2v2h-2z"/><path d="m48 43h2v2h-2z"/><path d="m49 55h2v2h-2z"/><path d="m44 54h2v2h-2z"/><path d="m41 45h2v2h-2z"/><path d="m41 49h2v2h-2z"/><path d="m56 43h2v2h-2z"/><path d="m52 39h2v2h-2z"/><path d="m56 37h2v2h-2z"/><path d="m48 37h2v2h-2z"/><path d="m44 41h2v2h-2z"/><path d="m42 37h2v2h-2z"/><path d="m52 33h2v2h-2z"/><path d="m45 33h2v2h-2z"/></g></svg>