<?xml version="1.0" encoding="iso-8859-1"?>
<!-- Generator: Adobe Illustrator 19.0.0, SVG Export Plug-In . SVG Version: 6.00 Build 0)  -->
<svg version="1.1" id="Capa_1" xmlns="http://www.w3.org/2000/svg" xmlns:xlink="http://www.w3.org/1999/xlink" x="0px" y="0px"
	 viewBox="0 0 512 512" style="enable-background:new 0 0 512 512;" xml:space="preserve">
<g>
	<g>
		<path d="M453.842,206.85c-5.298-8.393-8.744-17.819-10.108-27.65c0-19.086-13.169-35.767-40.019-50.8
			c12.919-12.822,22.952-25.241,22.952-43.067C426.667,29.908,373.908,0,324.267,0c-34.983,0-42.05,24.962-47.208,43.192
			c-5.15,18.2-8.3,25.075-21.058,25.075c-12.758,0-15.908-6.875-21.058-25.075C229.783,24.962,222.717,0,187.733,0
			c-49.642,0-102.4,29.908-102.4,85.333c0,17.826,10.033,30.245,22.952,43.067c-26.85,15.033-40.019,31.714-40.019,50.8
			c-1.365,9.831-4.811,19.257-10.108,27.65c-15.817,28.012-24.095,59.648-24.025,91.817c-0.044,23.429,5.765,46.498,16.9,67.113
			c4.859,8.158,7.832,17.299,8.7,26.754c0,28.8,23.108,119.467,76.8,119.467c18.577-0.645,36.927-4.294,54.338-10.805
			c3.913,6.672,11.06,10.781,18.796,10.805h92.667c7.735-0.024,14.881-4.133,18.793-10.806c17.411,6.512,35.762,10.161,54.34,10.806
			c53.692,0,76.8-90.667,76.8-119.467c0.868-9.455,3.841-18.596,8.7-26.754c11.135-20.614,16.944-43.683,16.9-67.113
			C477.936,266.498,469.658,234.862,453.842,206.85z M102.4,85.333c0-44.342,43.967-68.267,85.333-68.267
			c21.05,0,25.225,11.121,30.783,30.775C223,63.663,229.133,85.333,256,85.333s33-21.671,37.483-37.492
			c5.559-19.654,9.733-30.775,30.783-30.775c41.367,0,85.333,23.925,85.333,68.267c0,13.925-10.058,23.554-25.275,38.125
			l-0.899,0.865l-0.009,0.006c-1.652,1.582-3.381,3.249-5.144,4.961l-0.006,0.006l-0.003,0.003
			c-4.374,4.248-9.039,8.947-13.822,14.248l-0.026,0.03c-1.584,1.756-3.177,3.584-4.778,5.482l-0.44,0.531l-0.152,0.182
			c-0.833,0.993-1.667,1.981-2.496,3.008c-0.353,0.439-0.705,0.898-1.058,1.345c-1.328,1.672-2.648,3.392-3.96,5.158l-0.186,0.256
			c-6.339,8.572-11.948,17.661-16.766,27.172c-0.188-0.145-0.429-0.299-0.622-0.445c-1.538-1.164-3.161-2.349-4.974-3.56
			c-0.196-0.132-0.419-0.262-0.619-0.394c-1.697-1.118-3.536-2.24-5.47-3.358c-0.54-0.313-1.068-0.619-1.626-0.93
			c-2.18-1.215-4.479-2.412-6.948-3.574c-0.426-0.2-0.883-0.389-1.318-0.587c-2.253-1.029-4.625-2.017-7.117-2.965
			c-0.582-0.222-1.141-0.449-1.736-0.667c-2.848-1.036-5.846-1.998-8.994-2.885c-0.671-0.189-1.367-0.357-2.051-0.538
			c-2.951-0.779-6.017-1.483-9.224-2.091c-0.49-0.093-0.948-0.204-1.443-0.293c-3.553-0.634-7.296-1.121-11.164-1.502
			c-0.894-0.088-1.801-0.159-2.713-0.232c-4.039-0.325-8.186-0.554-12.562-0.554c-4.376,0-8.523,0.229-12.563,0.553
			c-0.911,0.073-1.819,0.144-2.713,0.232c-3.868,0.381-7.61,0.868-11.164,1.502c-0.495,0.089-0.953,0.2-1.443,0.293
			c-3.209,0.609-6.275,1.313-9.227,2.092c-0.683,0.18-1.376,0.348-2.045,0.536c-3.148,0.885-6.147,1.847-8.997,2.886
			c-0.596,0.217-1.154,0.444-1.736,0.667c-2.487,0.948-4.86,1.937-7.117,2.965c-0.434,0.198-0.892,0.387-1.318,0.587
			c-2.469,1.163-4.768,2.359-6.948,3.574c-0.558,0.311-1.085,0.617-1.625,0.929c-1.939,1.122-3.783,2.246-5.483,3.367
			c-0.195,0.128-0.41,0.255-0.602,0.383c-1.814,1.212-3.44,2.398-4.979,3.563c-0.194,0.147-0.44,0.305-0.629,0.451
			c-3.583-7.062-7.602-13.894-12.033-20.456l-0.24-0.354c-1.267-1.864-2.544-3.678-3.833-5.443c-0.476-0.655-0.95-1.308-1.428-1.948
			c-0.77-1.027-1.544-2.026-2.32-3.021c-0.892-1.148-1.779-2.293-2.671-3.392l-0.071-0.085
			c-6.566-7.986-13.605-15.571-21.079-22.715l-0.004-0.004l-0.006-0.006c-1.763-1.712-3.492-3.379-5.144-4.961l-0.908-0.871
			C112.458,108.887,102.4,99.258,102.4,85.333z M327.29,202.767c-5.17,12.926-9.231,26.268-12.139,39.882
			c-7.915-3.549-16.155-6.324-24.604-8.286c-0.431-0.102-0.854-0.209-1.291-0.308c-1.886-0.424-3.822-0.807-5.801-1.167
			c-1.039-0.191-2.095-0.366-3.16-0.538c-1.683-0.268-3.376-0.523-5.123-0.74c-0.956-0.119-1.923-0.225-2.898-0.328
			c-0.6-0.063-1.204-0.101-1.804-0.157l-0.371-0.032c-1.365-0.122-2.701-0.268-4.102-0.356c-3.241-0.206-6.56-0.337-9.997-0.337
			c-3.438,0-6.756,0.13-9.998,0.337c-1.401,0.088-2.737,0.234-4.102,0.356l-0.371,0.032c-0.383,0.036-0.779,0.019-1.161,0.058
			c-0.218,0.022-0.424,0.076-0.641,0.098c-0.976,0.103-1.944,0.208-2.9,0.328c-1.747,0.216-3.44,0.471-5.123,0.74
			c-1.066,0.172-2.122,0.346-3.16,0.538c-1.979,0.36-3.915,0.742-5.801,1.167c-0.436,0.099-0.859,0.206-1.291,0.308
			c-8.449,1.962-16.689,4.737-24.604,8.286c-2.907-13.614-6.969-26.955-12.142-39.88c1.391-1.189,2.962-2.455,4.764-3.775
			c0.43-0.315,0.972-0.646,1.426-0.966c1.523-1.072,3.136-2.157,4.93-3.251c0.83-0.506,1.781-1.004,2.67-1.508
			c1.623-0.919,3.31-1.831,5.132-2.723c1.108-0.543,2.303-1.062,3.485-1.587c1.853-0.821,3.801-1.612,5.843-2.371
			c1.339-0.498,2.717-0.98,4.135-1.444c2.177-0.71,4.497-1.346,6.868-1.956c1.503-0.386,2.984-0.783,4.565-1.122
			c2.704-0.579,5.608-1.019,8.546-1.435c1.477-0.209,2.872-0.478,4.408-0.64c9.652-1.055,19.39-1.055,29.042,0
			c1.536,0.162,2.931,0.431,4.408,0.64c2.938,0.416,5.842,0.856,8.546,1.435c1.581,0.339,3.062,0.735,4.565,1.122
			c2.371,0.61,4.691,1.246,6.868,1.956c1.421,0.464,2.799,0.945,4.135,1.444c2.04,0.759,3.987,1.55,5.843,2.371
			c1.182,0.525,2.377,1.044,3.485,1.587c1.822,0.892,3.509,1.804,5.132,2.723c0.889,0.504,1.84,1.002,2.67,1.508
			c1.794,1.094,3.407,2.179,4.93,3.251c0.454,0.32,0.996,0.651,1.426,0.966C324.33,200.313,325.9,201.578,327.29,202.767z
			 M307.2,490.071c-0.005,2.685-2.182,4.86-4.867,4.862h-92.667c-2.689-0.006-4.866-2.186-4.867-4.875v-26.675
			c0.877,0.204,1.758,0.341,2.635,0.535c1.724,0.38,3.448,0.71,5.174,1.05c3.078,0.604,6.157,1.146,9.236,1.625
			c1.86,0.288,3.719,0.566,5.579,0.807c2.983,0.385,5.967,0.683,8.95,0.947c1.883,0.168,3.762,0.369,5.644,0.489
			c3.398,0.214,6.795,0.304,10.192,0.362c1.262,0.022,2.529,0.135,3.79,0.135c1.26,0,2.527-0.112,3.79-0.134
			c3.397-0.058,6.794-0.148,10.192-0.362c1.881-0.119,3.76-0.321,5.644-0.489c2.983-0.264,5.967-0.563,8.95-0.947
			c1.86-0.241,3.719-0.519,5.579-0.807c3.081-0.475,6.16-1.017,9.236-1.626c1.726-0.339,3.45-0.67,5.174-1.05
			c0.877-0.193,1.758-0.331,2.635-0.535V490.071z M307.2,445.7c-1.548,0.389-3.094,0.792-4.644,1.145
			c-1.85,0.422-3.699,0.847-5.55,1.219c-2.846,0.571-5.696,1.05-8.546,1.501c-1.685,0.267-3.37,0.566-5.056,0.792
			c-3.277,0.438-6.557,0.754-9.838,1.034c-1.263,0.108-2.524,0.27-3.786,0.355c-9.177,0.616-18.384,0.616-27.561,0
			c-1.263-0.085-2.524-0.247-3.786-0.355c-3.28-0.281-6.56-0.596-9.838-1.034c-1.686-0.225-3.371-0.524-5.056-0.792
			c-2.85-0.452-5.7-0.93-8.546-1.501c-1.851-0.372-3.7-0.797-5.55-1.219c-1.55-0.353-3.096-0.756-4.644-1.145v-28
			c0.102,0.038,0.209,0.063,0.31,0.101c7.462,2.759,15.148,4.867,22.974,6.301c1.079,0.201,2.166,0.377,3.255,0.554
			c2.853,0.462,5.804,0.836,8.842,1.143c1.148,0.116,2.283,0.261,3.441,0.351c3.989,0.311,8.086,0.517,12.378,0.517
			c4.292,0,8.388-0.207,12.375-0.518c1.165-0.091,2.308-0.236,3.465-0.353c3.022-0.306,5.958-0.678,8.8-1.138
			c1.104-0.179,2.207-0.358,3.302-0.561c7.789-1.428,15.44-3.525,22.869-6.267c0.127-0.047,0.262-0.078,0.39-0.126V445.7z
			 M445.583,358.388c-6.06,10.424-9.614,22.113-10.383,34.146c0,24.688-21.842,102.4-59.733,102.4
			c-17.544-0.704-34.848-4.327-51.2-10.721v-66.974c9.379,8.324,21.601,12.719,34.133,12.275c4.713,0,8.533-3.821,8.533-8.533
			c0-4.713-3.82-8.533-8.533-8.533c-8.844,0.504-17.489-2.747-23.81-8.953c4.715-3.179,9.092-6.833,13.06-10.906
			c3.157-3.49,2.894-8.877-0.589-12.043c-3.483-3.166-8.87-2.915-12.044,0.56c-6.751,6.527-14.526,11.905-23.014,15.919
			l-0.077,0.027c-4.089,2.03-8.296,3.813-12.598,5.339c-0.181,0.064-0.35,0.133-0.532,0.197c-4.04,1.399-8.151,2.58-12.318,3.538
			c-0.658,0.154-1.301,0.318-1.973,0.463c-4.029,0.875-8.148,1.542-12.342,2.031c-0.897,0.105-1.821,0.186-2.737,0.275
			c-4.403,0.422-8.86,0.707-13.425,0.707c-4.636,0-9.166-0.283-13.633-0.718c-0.763-0.074-1.535-0.14-2.285-0.225
			c-4.371-0.49-8.715-1.205-13.013-2.142c-0.298-0.065-0.584-0.137-0.879-0.203c-9.044-2.041-17.813-5.15-26.123-9.262
			c-0.165-0.082-0.344-0.108-0.513-0.179c-8.334-3.988-15.959-9.314-22.571-15.767c-3.174-3.475-8.562-3.725-12.044-0.56
			s-3.746,8.553-0.589,12.043c3.968,4.073,8.345,7.727,13.06,10.906c-6.322,6.205-14.967,9.455-23.811,8.953
			c-4.713,0-8.533,3.821-8.533,8.533c0,4.713,3.82,8.533,8.533,8.533c12.532,0.444,24.754-3.951,34.133-12.275v66.974
			c-16.352,6.394-33.656,10.017-51.2,10.721c-37.892,0-59.733-77.712-59.733-102.4c-0.769-12.033-4.324-23.722-10.383-34.146
			c-10.01-18.312-15.243-38.852-15.217-59.721c-0.082-29.492,7.566-58.49,22.183-84.105c6.677-10.699,10.768-22.806,11.95-35.362
			c0-13.333,11.716-25.921,35.775-38.383l0.713,0.698l-0.004,0.006l4.258,4.204c1.437,1.44,2.928,2.972,4.444,4.562
			c0.48,0.503,0.96,1.032,1.44,1.544c1.082,1.155,2.175,2.338,3.283,3.576c0.51,0.568,1.019,1.153,1.528,1.732
			c1.249,1.426,2.509,2.901,3.777,4.437c0.311,0.377,0.624,0.75,0.936,1.132c10.211,12.543,18.672,26.414,25.15,41.234l0.033,0.071
			l0.019,0.044c1.626,3.714,3.129,7.514,4.554,11.382c0.421,1.151,0.816,2.367,1.224,3.549c0.818,2.347,1.6,4.729,2.347,7.144
			c0.633,2.058,1.254,4.147,1.85,6.296c0.299,1.073,0.572,2.177,0.858,3.264c-7.447-3.617-15.641-5.43-23.918-5.293
			c-4.713,0-8.533,3.82-8.533,8.533s3.82,8.533,8.533,8.533c8.016-0.365,15.884,2.252,22.085,7.345
			c-4.068,2.867-7.862,6.103-11.335,9.668c-3.157,3.49-2.894,8.877,0.589,12.043s8.87,2.915,12.044-0.56
			c5.29-5.169,11.266-9.585,17.76-13.124l0.081-0.034l0.05-0.021c7.709-4.344,15.898-7.774,24.402-10.221l0.256-0.078
			c2.33-0.673,4.787-1.288,7.325-1.855c0.284-0.064,0.554-0.135,0.841-0.197c0.456-0.098,0.962-0.164,1.426-0.259
			c1.929-0.395,3.902-0.761,5.944-1.08c0.498-0.077,0.969-0.175,1.473-0.247c0.865-0.124,1.806-0.185,2.692-0.294
			c1.586-0.196,3.179-0.385,4.829-0.528c0.656-0.056,1.271-0.147,1.938-0.195c3.221-0.231,6.55-0.363,10-0.363
			c3.458,0,6.795,0.132,10.023,0.364c0.478,0.033,0.92,0.099,1.394,0.137c1.835,0.152,3.592,0.368,5.35,0.585
			c0.948,0.117,1.96,0.181,2.885,0.316l0.377,0.062c2.371,0.352,4.625,0.788,6.846,1.243c0.533,0.109,1.118,0.184,1.642,0.299
			c11.427,2.439,22.421,6.59,32.608,12.312l0.046,0.019l0.004,0.002c0.177,0.101,0.373,0.145,0.554,0.232
			c6.332,3.504,12.154,7.859,17.304,12.943c3.176,3.484,8.574,3.734,12.058,0.558c3.484-3.176,3.734-8.574,0.558-12.058
			c-3.472-3.563-7.266-6.799-11.332-9.665c6.199-5.095,14.066-7.713,22.082-7.348c4.713,0,8.533-3.82,8.533-8.533
			s-3.82-8.533-8.533-8.533c-8.278-0.138-16.472,1.675-23.919,5.292c0.286-1.087,0.559-2.191,0.858-3.264
			c0.596-2.149,1.217-4.239,1.85-6.296c0.748-2.413,1.53-4.794,2.347-7.144c0.408-1.182,0.803-2.398,1.224-3.549
			c1.385-3.764,2.862-7.455,4.431-11.075l0.247-0.575c2.797-6.366,5.957-12.565,9.467-18.567c0.147-0.251,0.296-0.496,0.444-0.745
			c1.525-2.578,3.071-5.05,4.64-7.417c0.148-0.222,0.293-0.453,0.44-0.673c3.292-4.931,6.642-9.401,9.971-13.507
			c0.519-0.64,1.041-1.262,1.563-1.888c1.074-1.291,2.143-2.544,3.206-3.76c0.632-0.723,1.265-1.446,1.898-2.151
			c1.01-1.122,2.006-2.202,2.998-3.261c0.571-0.61,1.142-1.236,1.711-1.835c1.524-1.596,3.028-3.141,4.482-4.599l3.925-3.867
			l-0.005-0.005c0.235-0.229,0.479-0.472,0.714-0.698c24.059,12.463,35.775,25.05,35.775,38.383
			c1.182,12.556,5.273,24.663,11.95,35.362c14.617,25.615,22.265,54.613,22.183,84.105
			C460.826,319.536,455.593,340.075,445.583,358.388z"/>
	</g>
</g>
<g>
</g>
<g>
</g>
<g>
</g>
<g>
</g>
<g>
</g>
<g>
</g>
<g>
</g>
<g>
</g>
<g>
</g>
<g>
</g>
<g>
</g>
<g>
</g>
<g>
</g>
<g>
</g>
<g>
</g>
</svg>
